<svg xmlns="http://www.w3.org/2000/svg" xmlns:se="http://svg-edit.googlecode.com" xmlns:xlink="http://www.w3.org/1999/xlink" xmlns:dc="http://purl.org/dc/elements/1.1/" xmlns:cc="http://creativecommons.org/ns#" xmlns:rdf="http://www.w3.org/1999/02/22-rdf-syntax-ns#" xmlns:inkscape="http://www.inkscape.org/namespaces/inkscape" width="500" height="500" style="">                                    <title>my vector image</title>                                    <!-- Created with Vector Paint - http://www.vectorpaint.yaks.com/ https://chrome.google.com/webstore/detail/hnbpdiengicdefcjecjbnjnoifekhgdo -->                                    <rect id="backgroundrect" width="100%" height="100%" x="0" y="0" fill="#FFFFFF" stroke="none" class="" style=""/>                                <g class="currentLayer" style=""><title>Layer 1</title><path fill="#1a1aeb" stroke="#0eefe8" stroke-width="2" stroke-linejoin="round" stroke-dashoffset="" fill-rule="nonzero" marker-start="" marker-mid="" marker-end="" id="svg_6" d="M138.2370221691043,148.64445309787817 C133.81952247373076,172.1364190197376 122.53568591334476,194.5879300130186 121.7758617157086,218.81267316970835 C122.78685066020299,232.83876094389532 112.76781291818149,240.3728292761292 99.05203436349825,240.10757106841982 C84.3002834104657,254.46900828632224 100.87284499286562,277.16570218556006 117.56408562590171,282.96298407388906 C134.59844357093104,293.70186324241274 155.7307606960658,281.7023039464177 172.60483617681078,291.3355049955966 C195.01080488636745,307.78547723896844 204.36478431017858,336.95163099565536 196.63474467622316,362.52113217105244 C188.94901474199335,383.6288185466553 228.29180807215695,375.9521408997166 213.49365272354316,359.0791369574787 C202.0644717859909,342.5870755084615 235.03848734243923,348.0396739429128 226.5969391254146,363.69736104687996 C225.00182051701236,376.2661370003062 236.46824728905136,380.3343294131195 231.3653080367609,392.51117746140267 C244.6593187980437,399.67047810712097 230.25091450328586,403.6790764552717 222.15361503984317,405.0308565215602 C203.1916016823995,413.9085771512737 225.58347324115962,389.1278285514732 210.56178172653142,381.7981606809225 C196.80568409730023,384.6060032465922 206.12685171450167,406.24086015405504 201.40513183478066,403.7420594835991 C191.68467235879717,396.5932990892986 191.69184325223588,369.8661078181736 175.37761731010673,387.30528409451847 C169.96308821331144,365.817143466246 179.84236233743616,343.438107471594 172.23194971875137,322.07471229858714 C175.34948416749364,306.1202467526944 148.5285385715081,300.61711542342056 151.92090630229927,319.121618175356 C153.27326952712932,347.3634033693574 144.14209236129793,375.54894038237353 149.3827311150204,403.65157702545054 C156.60057936556368,420.9850492271564 176.78774521587587,428.79356617707145 189.4577812210224,442.1693175658435 C199.863328589634,452.48278127291553 213.35321635658872,463.5095500336997 229.5488702763088,460.262506391624 C247.91813055004607,459.5146655004112 266.3212576232148,457.921335612134 284.6076321544171,460.66042242323186 C307.6081734281011,461.3417477222802 325.16623593935304,444.2666983608726 344.7948671696833,435.4956439268868 C367.8698542431317,418.2872474608203 364.23676466572124,387.54946179939816 361.93648272106134,363.06531932131793 C359.11589053501046,347.9490478846317 365.3053348141393,332.8258980004578 364.151875965736,317.8511157972332 C347.5160606816676,298.73397170075475 333.867128920273,332.3361783892661 338.606080349851,346.77280464873286 C338.60491832875476,364.93298294719204 342.3181720729369,388.3263960821302 323.8732275295967,400.156105113889 C308.6511791121288,399.79561128285263 294.1641854949615,404.9884944756001 278.82472707621025,402.27334581048274 C266.37763093675113,409.2154799406275 246.2163965048733,409.03721470727675 242.10785681676683,392.51124926148117 C240.46755699288929,377.8350979421795 247.5480574062766,362.44864281242104 237.92762348419583,348.751715315287 C246.38033321977923,355.58909313182374 261.1276960141528,342.84650354987366 252.90885831655714,358.1754468172505 C242.88423981523255,370.6531802719169 261.3973154909797,389.8805518479177 268.3666288319274,371.4632143905744 C270.6788520724657,359.10624866690324 258.36497553728157,342.7059046373462 278.6063894256975,345.35330274901617 C282.7343165186148,349.7119695568613 264.5098654807416,380.2007669082292 289.4215339455285,372.4959149107302 C307.1822009530799,368.8420807474053 286.26176920334603,342.6758060447139 310.31317509329665,342.58487842607195 C321.9531864134134,329.7145708656055 318.81912374340214,305.5908360584432 336.62416160961897,295.82703066757034 C356.4766653804684,283.2087988205274 387.4731350655926,292.3186634620334 401.64265228390406,270.94975404308076 C413.7201951311367,260.0145016615596 408.0365511192616,229.70557786530685 387.20716983934955,239.74839835879672 C361.1771630851946,242.13161526389217 381.8356049440582,206.63678724246836 381.1093264610558,193.3364833755582 C387.24244329590596,181.7523880502169 373.6611228153601,157.36788972023987 378.3377837976068,154.78080367400915 C387.17446506101544,167.47869052746125 390.3394130289387,182.33026379705387 388.4389733741069,197.16981773359126 C388.27566353898874,209.7542461040008 382.59324270725926,243.85975697840874 401.2214196318161,222.83530125308968 C407.5275552939439,208.18310243976947 405.6934731603173,191.58685907773992 410.1862748815173,176.34294146258003 C418.85171092885076,143.43172436359217 403.33606870429236,110.50221260479621 386.03903282957606,82.62660780798277 C371.3074337689232,67.61984585007036 352.6052544474046,55.65700511390399 335.04248269271994,43.87859005779933 C305.5012762596082,33.44376985910496 272.883206116598,31.5744117514007 241.6831686808618,34.18962906814914 C214.08548842215433,38.682346621420706 184.90103775931726,43.418940319215466 162.91598061705528,61.091308888522505 C141.48965686152476,72.94847427004683 120.96944964540143,88.69661511213842 112.49874387240021,111.48004350542314 C105.11688245816775,129.8343835745028 92.19029971367053,148.52601168940987 98.06531025452493,168.9150367254987 C103.6839728227844,185.9115655216978 100.7039543984747,203.56306898839344 101.61367931921806,220.93525579209273 C111.19182178882063,240.78994464858496 120.23476179911655,210.77548733173757 119.33840012113689,200.8477049230228 C119.86864870097864,182.02142294206402 130.44429455430108,165.3574290265365 138.2370374588663,148.6444818179166 L138.2370221691043,148.64445309787817 zM314.1615443709379,189.0337488283539 C333.85833731319457,190.35933622622068 358.7974661715741,200.66089548038744 359.33499267307883,222.13760553627998 C362.32999505379036,243.69005031433673 343.7876700835443,264.58127381516965 320.0251946264806,262.46772364260084 C298.441248823406,260.8026080364257 284.6370802156583,243.29233532295163 286.0703109358528,223.60581660886245 C278.8440686117974,209.49036645774405 290.0893749985465,194.3725441393667 305.18161342631987,191.1276401396129 C308.1083011976076,190.20335773701717 311.1166056620577,189.5115209065999 314.1615443709379,189.03373446834902 L314.1615443709379,189.0337488283539 zM181.2413287246566,190.86946141956994 C204.09106717993723,187.05288519970864 230.0882468377484,200.365825880343 230.16454269743215,224.12046520712096 C232.31059691933453,247.08491595676762 206.35084657304836,251.58410987705565 188.64224116915597,257.33704803730325 C176.3886979931331,264.76788221757823 163.6601633989764,257.8492267128799 153.47842741192136,250.36241719189036 C140.26812803972962,237.37608070553435 144.15094512737014,211.20666115944059 158.0996783349411,199.352353421011 C164.86368089359917,194.65082688122396 173.23696037044994,192.80263543649156 181.2413287246566,190.86946141956994 zM259.42975382734573,251.4516674533846 C270.4915831968574,265.731022822308 283.77138977905395,287.506090921832 269.4660536987413,303.712632181139 C256.76682955808076,313.2779390766881 255.1657938158744,290.1070056630617 241.83673894430055,301.01955485996035 C229.33253558322107,290.73433730351627 240.8652892970073,269.80494488131023 249.63896149475602,259.356425227737 C252.5307121840002,256.3476429640973 255.83985779774434,253.6987657708365 259.42975382734573,251.4516674533846 z" style="color: rgb(0, 0, 0);" class="" fill-opacity="1" opacity="1" stroke-opacity="1"/></g></svg>